<svg width="20" height="20" viewBox="0 0 20 20" fill="none" xmlns="http://www.w3.org/2000/svg">
<path d="M18.3334 19.9999L13.9584 15.8333L14.4834 17.4999H3.75008C3.19755 17.4999 2.66764 17.2804 2.27694 16.8897C1.88624 16.499 1.66675 15.9691 1.66675 15.4166V2.91659C1.66675 2.36405 1.88624 1.83415 2.27694 1.44345C2.66764 1.05275 3.19755 0.833252 3.75008 0.833252H16.2501C16.8026 0.833252 17.3325 1.05275 17.7232 1.44345C18.1139 1.83415 18.3334 2.36405 18.3334 2.91659V19.9999ZM10.0001 5.66659C7.76675 5.66659 6.20008 6.62492 6.20008 6.62492C7.05841 5.85825 8.55841 5.41658 8.55841 5.41658L8.41675 5.27492C7.00841 5.29992 5.73341 6.27492 5.73341 6.27492C4.30008 9.26659 4.39175 11.8499 4.39175 11.8499C5.55841 13.3583 7.29175 13.2499 7.29175 13.2499L7.88341 12.4999C6.84175 12.2749 6.18341 11.3499 6.18341 11.3499C6.18341 11.3499 7.75008 12.4166 10.0001 12.4166C12.2501 12.4166 13.8167 11.3499 13.8167 11.3499C13.8167 11.3499 13.1584 12.2749 12.1167 12.4999L12.7084 13.2499C12.7084 13.2499 14.4417 13.3583 15.6084 11.8499C15.6084 11.8499 15.7001 9.26659 14.2667 6.27492C14.2667 6.27492 12.9917 5.29992 11.5834 5.27492L11.4417 5.41658C11.4417 5.41658 12.9417 5.85825 13.8001 6.62492C13.8001 6.62492 12.2334 5.66659 10.0001 5.66659ZM8.27508 8.82492C8.81675 8.82492 9.25841 9.29992 9.25008 9.88325C9.25008 10.4583 8.81675 10.9416 8.27508 10.9416C7.74175 10.9416 7.30841 10.4583 7.30841 9.88325C7.30841 9.29992 7.73341 8.82492 8.27508 8.82492ZM11.7501 8.82492C12.2917 8.82492 12.7251 9.29992 12.7251 9.88325C12.7251 10.4583 12.2917 10.9416 11.7501 10.9416C11.2167 10.9416 10.7834 10.4583 10.7834 9.88325C10.7834 9.29992 11.2084 8.82492 11.7501 8.82492Z" fill="white"/>
</svg>
