<svg width="20" height="20" viewBox="0 0 20 20" fill="none" xmlns="http://www.w3.org/2000/svg">
<path d="M12.0834 12.8417C12.1501 12.9167 12.1501 13.0751 12.0834 13.1667C11.4751 13.7501 10.3417 13.8001 10.0001 13.8001C9.67508 13.8001 8.54175 13.7501 7.95008 13.1667C7.86675 13.0751 7.86675 12.9167 7.95008 12.8417C8.04175 12.7584 8.18341 12.7584 8.26675 12.8417C8.65008 13.2251 9.44175 13.3334 10.0001 13.3334C10.5751 13.3334 11.3834 13.2251 11.7501 12.8417C11.8417 12.7584 11.9834 12.7584 12.0834 12.8417ZM8.95841 10.8667C8.95841 10.3917 8.56675 10.0001 8.09175 10.0001C7.61675 10.0001 7.22508 10.3917 7.22508 10.8667C7.22508 11.3417 7.61675 11.7417 8.09175 11.7334C8.56675 11.7334 8.95841 11.3417 8.95841 10.8667ZM11.9084 10.0001C11.4334 10.0001 11.0417 10.4167 11.0417 10.8751C11.0417 11.3334 11.4334 11.7417 11.9084 11.7417C12.3834 11.7417 12.7751 11.3417 12.7751 10.8751C12.7751 10.4167 12.3834 10.0001 11.9084 10.0001ZM18.3334 10.0001C18.3334 14.5834 14.5834 18.3334 10.0001 18.3334C5.41675 18.3334 1.66675 14.5834 1.66675 10.0001C1.66675 5.41675 5.41675 1.66675 10.0001 1.66675C14.5834 1.66675 18.3334 5.41675 18.3334 10.0001ZM15.5584 10.0001C15.5584 9.32508 15.0001 8.78341 14.3501 8.78341C14.0167 8.78341 13.7167 8.91675 13.5001 9.12508C12.6667 8.52508 11.5251 8.14175 10.2501 8.09175L10.8084 5.48341L12.6167 5.87508C12.6334 6.33341 13.0167 6.70008 13.4834 6.70008C13.9584 6.70008 14.3501 6.30841 14.3501 5.83341C14.3501 5.35841 13.9584 4.96675 13.4834 4.96675C13.1417 4.96675 12.8417 5.16675 12.7084 5.45841L10.6834 5.02508C10.6251 5.00008 10.5667 5.02508 10.5251 5.05841C10.4751 5.09175 10.4501 5.14175 10.4417 5.20008L9.82508 8.10008C8.53341 8.14175 7.36675 8.52508 6.51675 9.13341C6.30008 8.92508 6.00008 8.80008 5.67508 8.80008C5.00008 8.80008 4.45841 9.34175 4.45841 10.0001C4.45841 10.5084 4.75841 10.9251 5.17508 11.1167C5.15841 11.2501 5.15008 11.3501 5.15008 11.4834C5.15008 13.3334 7.32508 14.8751 10.0001 14.8751C12.6917 14.8751 14.8751 13.3584 14.8751 11.4834C14.8751 11.3667 14.8667 11.2501 14.8417 11.1167C15.2584 10.9251 15.5584 10.5001 15.5584 10.0001Z" fill="white"/>
</svg>
